<svg xmlns="http://www.w3.org/2000/svg" viewBox="0 0 128 128" fill="none">
  <defs>
    <linearGradient id="wall" x1="35" y1="43" x2="87" y2="102" gradientUnits="userSpaceOnUse">
      <stop stop-color="#B8F4FF"/>
      <stop offset="1" stop-color="#4DAFD4"/>
    </linearGradient>
    <linearGradient id="side" x1="92" y1="53" x2="112" y2="94" gradientUnits="userSpaceOnUse">
      <stop stop-color="#78D9F2"/>
      <stop offset="1" stop-color="#287CA7"/>
    </linearGradient>
    <linearGradient id="door" x1="47" y1="58" x2="78" y2="96" gradientUnits="userSpaceOnUse">
      <stop stop-color="#123C5A"/>
      <stop offset="1" stop-color="#09233B"/>
    </linearGradient>
    <linearGradient id="crate" x1="29" y1="77" x2="48" y2="98" gradientUnits="userSpaceOnUse">
      <stop stop-color="#D8FAFF"/>
      <stop offset="1" stop-color="#69C8E3"/>
    </linearGradient>
    <filter id="soft-glow" x="5" y="3" width="118" height="120" color-interpolation-filters="sRGB" filterUnits="userSpaceOnUse">
      <feGaussianBlur stdDeviation="5"/>
    </filter>
  </defs>
  <ellipse cx="65" cy="107" rx="43" ry="7" fill="#4CC7EC" fill-opacity=".2" filter="url(#soft-glow)"/>
  <path d="M21 48 63 25 108 47 66 70 21 48Z" fill="#B7F4FF" fill-opacity=".16" stroke="#BDF5FF" stroke-opacity=".9" stroke-width="2" stroke-linejoin="round"/>
  <path d="M25 49 64 29 101 48 64 68 25 49Z" fill="#8EE6F8" fill-opacity=".12"/>
  <path d="M25 49 64 69V105L25 85V49Z" fill="url(#wall)" fill-opacity=".74" stroke="#D8FAFF" stroke-width="1.7" stroke-linejoin="round"/>
  <path d="M64 69 103 49V85L64 105V69Z" fill="url(#side)" fill-opacity=".8" stroke="#A7ECFC" stroke-width="1.7" stroke-linejoin="round"/>
  <path d="M43 59 64 48 84 58V91L64 102 43 91V59Z" fill="url(#door)" stroke="#D5FAFF" stroke-opacity=".9" stroke-width="1.7" stroke-linejoin="round"/>
  <path d="M48 62 64 54 79 62M48 68 64 60 79 68M48 74 64 66 79 74" stroke="#6FCBE7" stroke-opacity=".55" stroke-width="1.3" stroke-linecap="round"/>
  <path d="M64 78V91M58 81.5 70 88.5M70 81.5 58 88.5" stroke="#D5F9FF" stroke-width="2" stroke-linecap="round"/>
  <path d="M58 78 64 75 70 78 70 84 64 87 58 84V78Z" stroke="#D5F9FF" stroke-opacity=".82" stroke-width="1.4" stroke-linejoin="round"/>
  <path d="M31 73 42 78.5V92L31 86.5V73Z" fill="url(#crate)" stroke="#E0FBFF" stroke-width="1.4" stroke-linejoin="round"/>
  <path d="M31 73 36.5 70 47.5 75.5 42 78.5 31 73Z" fill="#E3FCFF" fill-opacity=".8" stroke="#E0FBFF" stroke-width="1.3" stroke-linejoin="round"/>
  <path d="M42 78.5 47.5 75.5V89L42 92V78.5Z" fill="#48A9CF" stroke="#C7F6FF" stroke-width="1.3" stroke-linejoin="round"/>
  <path d="M31 80 42 85.5M36.5 76V89" stroke="#E8FCFF" stroke-opacity=".72" stroke-width="1.2" stroke-linecap="round"/>
  <path d="M83 75 96 68.5V82L83 88.5V75Z" fill="#A5EDFA" fill-opacity=".72" stroke="#D7FAFF" stroke-width="1.4" stroke-linejoin="round"/>
  <path d="M83 75 77.5 72 90.5 65.5 96 68.5 83 75Z" fill="#D9FAFF" fill-opacity=".86" stroke="#D7FAFF" stroke-width="1.3" stroke-linejoin="round"/>
  <path d="M64 17V28M58.5 20.2 69.5 26.8M69.5 20.2 58.5 26.8" stroke="#D9FBFF" stroke-width="1.7" stroke-linecap="round"/>
  <path d="M17 64 20 67M111 62 108 65" stroke="#B9F3FF" stroke-opacity=".76" stroke-width="1.7" stroke-linecap="round"/>
</svg>
